<svg xmlns="http://www.w3.org/2000/svg" viewBox="0 0 200 160" width="200" height="160">
  <title>ezles.dev</title>
  <desc>Logo ezles.dev — Ferris mascotte lavande, sans fond</desc>

  <g transform="translate(100, 90)">
    <path d="M -53,-17 Q -73,-20 -73,-31 Q -73,-42 -59,-42 L -50,-37 Q -59,-34 -59,-28 Q -59,-22 -50,-21 Z" fill="#c4b5fd"/>
    <path d="M 53,-17 Q 73,-20 73,-31 Q 73,-42 59,-42 L 50,-37 Q 59,-34 59,-28 Q 59,-22 50,-21 Z" fill="#c4b5fd"/>
    <ellipse cx="-45" cy="28" rx="6" ry="11" fill="#c4b5fd" transform="rotate(-15 -45 28)"/>
    <ellipse cx="-31" cy="34" rx="6" ry="11" fill="#c4b5fd" transform="rotate(-5 -31 34)"/>
    <ellipse cx="45" cy="28" rx="6" ry="11" fill="#c4b5fd" transform="rotate(15 45 28)"/>
    <ellipse cx="31" cy="34" rx="6" ry="11" fill="#c4b5fd" transform="rotate(5 31 34)"/>
    <path d="M -48,-3 Q -48,-31 0,-31 Q 48,-31 48,-3 Q 48,22 0,22 Q -48,22 -48,-3 Z" fill="#c4b5fd"/>
    <ellipse cx="-15" cy="-10" rx="10" ry="13" fill="#ffffff"/>
    <ellipse cx="15" cy="-10" rx="10" ry="13" fill="#ffffff"/>
    <circle cx="-14" cy="-8" r="6" fill="#1a1a1a"/>
    <circle cx="17" cy="-8" r="6" fill="#1a1a1a"/>
    <circle cx="-12" cy="-11" r="2" fill="#ffffff"/>
    <circle cx="19" cy="-11" r="2" fill="#ffffff"/>
  </g>
</svg>